<?xml version="1.0" encoding="UTF-8"?>
<svg width="16px" height="16px" viewBox="0 0 16 16" version="1.1" xmlns="http://www.w3.org/2000/svg">
    <path d="M12.367,4.876 C11.482,4.876 10.765,5.312 10.218,5.312 C9.635,5.312 8.987,4.903 8.187,4.903 C6.783,4.903 5.277,5.95 5.277,8.07 C5.277,9.154 5.682,10.288 6.199,11.066 C6.635,11.726 7.007,12.277 7.601,12.277 C8.16,12.277 8.454,11.844 9.199,11.844 C9.927,11.844 10.185,12.277 10.79,12.277 C11.384,12.277 11.783,11.672 12.192,11.052 C12.654,10.356 12.857,9.676 12.867,9.64 C12.83,9.63 11.005,8.915 11.005,7.045 C11.005,5.429 12.431,4.912 12.505,4.876 C11.773,3.873 10.662,3.75 10.255,3.75 C9.398,3.75 8.677,4.223 8.213,4.223 C7.71,4.223 7.062,3.777 6.297,3.777 C4.51,3.777 2.705,5.168 2.705,8.097 C2.705,9.991 3.408,11.979 4.361,13.324 C5.169,14.467 5.904,15.25 6.973,15.25 C7.863,15.25 8.454,14.577 9.326,14.577 C10.227,14.577 10.708,15.25 11.692,15.25 C12.78,15.25 13.579,14.358 14.341,13.27 C15.218,12.004 15.607,10.765 15.625,10.702 C15.571,10.684 12.83,9.559 12.83,6.761 C12.83,4.363 14.994,3.503 15.085,3.458 C13.911,1.824 12.166,1.75 11.638,1.75 C10.014,1.75 8.704,2.747 7.917,2.747 C7.196,2.747 6.041,1.804 4.658,1.804 C4.361,1.804 4.073,1.831 3.795,1.877 L3.795,1.877 Z" fill="currentColor"></path>
</svg>
