<?xml version="1.0" encoding="UTF-8"?>
<svg version="1.1" xmlns="http://www.w3.org/2000/svg" width="225" height="225">
<path d="M0 0 C1.65 0 3.3 0 5 0 C5.30292969 0.67546875 5.60585937 1.3509375 5.91796875 2.046875 C9.18976491 9.01328405 11.97207157 12.60496951 19 15.875 C23.23410454 17.91601447 25.37123538 20.09668283 28 24 C28.38674762 25.65508766 28.73024967 27.321869 29 29 C29.68707031 28.57847656 30.37414062 28.15695313 31.08203125 27.72265625 C31.98308594 27.17480469 32.88414062 26.62695312 33.8125 26.0625 C34.70582031 25.51722656 35.59914062 24.97195312 36.51953125 24.41015625 C40.3682638 22.22213664 43.45995421 21.85494582 47.8125 21.625 C54.17902231 21.11874642 58.06320539 20.03127239 62.5625 15.3125 C65 13 65 13 67.75 12.625 C70 13 70 13 71 14 C72.03613087 24.15747972 70.10923288 32.94586937 64.1875 41.3125 C56.14854252 51.16475616 47.47208569 55.25757626 35 57 C35.29970703 58.43279297 35.29970703 58.43279297 35.60546875 59.89453125 C36.28337304 64.68802503 35.32860548 69.0008637 34.3125 73.6875 C34.12534424 74.57453613 33.93818848 75.46157227 33.74536133 76.37548828 C29.16686507 97.44695487 19.50994854 114.13703375 5 130 C7.03189929 132.03189929 8.25998119 132.65032968 10.87890625 133.69140625 C11.63494141 133.99626953 12.39097656 134.30113281 13.16992188 134.61523438 C14.35424805 135.08413086 14.35424805 135.08413086 15.5625 135.5625 C17.12718449 136.1865943 18.69103407 136.81278729 20.25390625 137.44140625 C20.94814697 137.71670166 21.6423877 137.99199707 22.35766602 138.27563477 C24 139 24 139 25 140 C25.375 142.3125 25.375 142.3125 25 145 C20.08482234 149.91517766 15.70198261 150.13601901 9.09521484 150.18774414 C7.779646 150.18762329 7.779646 150.18762329 6.4375 150.1875 C5.53725098 150.19322021 4.63700195 150.19894043 3.70947266 150.20483398 C-1.14306533 150.18775683 -5.41565679 149.84994635 -10.125 148.5625 C-13.27571475 147.86396944 -14.48097069 147.73581323 -17.38671875 149.21484375 C-19.04133186 150.43248979 -20.66716452 151.6899919 -22.265625 152.98046875 C-34.88758839 162.30269028 -49.44356464 163.44563015 -64.5 163.4375 C-65.64017075 163.43810425 -65.64017075 163.43810425 -66.80337524 163.4387207 C-78.23249208 163.40373746 -88.48251922 162.77751056 -99 158 C-99.64372559 157.71060547 -100.28745117 157.42121094 -100.95068359 157.12304688 C-109.96897503 152.97194473 -117.66353524 147.72326771 -125 141 C-125.92554687 140.16726562 -126.85109375 139.33453125 -127.8046875 138.4765625 C-138.73746471 128.14947932 -145.91542916 116.12924013 -151 102 C-151.3403125 101.05769531 -151.680625 100.11539063 -152.03125 99.14453125 C-157.4389799 80.5930134 -155.32062536 59.52413384 -146.9375 42.375 C-137.84138081 26.40322755 -124.51479978 16.50493326 -107.25 10.75 C-97.04058893 8.39398206 -85.96240838 8.03810348 -75.60546875 9.6875 C-70.35099136 10.31828554 -66.15981431 8.88689509 -61.25 7.125 C-59.61010481 6.56297019 -57.96949874 6.00300954 -56.328125 5.4453125 C-55.19117187 5.05678101 -55.19117187 5.05678101 -54.03125 4.66040039 C-47.82362805 2.64217715 -41.19690337 1.95611318 -34.9375 4 C-34.298125 4.33 -33.65875 4.66 -33 5 C-33 5.99 -33 6.98 -33 8 C-33.94875 8.598125 -34.8975 9.19625 -35.875 9.8125 C-39.14319336 11.75415077 -39.14319336 11.75415077 -40.5625 14.875 C-41.1324891 18.94635069 -40.10824776 20.51466274 -38 24 C-35.73852138 26.02031703 -35.73852138 26.02031703 -33.0625 27.6875 C-28.81133887 30.63534463 -24.85975473 33.74129425 -21.0625 37.25 C-20.56580811 37.70874512 -20.06911621 38.16749023 -19.55737305 38.64013672 C-16.94667195 41.08543308 -14.40977266 43.58623946 -11.92578125 46.16015625 C-3.47506024 54.92657057 -3.47506024 54.92657057 7 61 C8.32 61 9.64 61 11 61 C11.66 58.03 12.32 55.06 13 52 C12.33613281 51.443125 11.67226562 50.88625 10.98828125 50.3125 C0.90764123 41.60047242 -3.70411471 33.98839718 -5.28515625 20.58203125 C-5.58165216 13.29854486 -3.36886891 6.40085092 0 0 Z M-138 61 C-139.25661612 81.3851059 -131.89973905 101.31992884 -119 117 C-118.11248047 118.14855469 -118.11248047 118.14855469 -117.20703125 119.3203125 C-110.15990746 127.94515057 -99.30419021 137.1309805 -88 139 C-83.68759938 139.35347546 -80.69000242 139.36160155 -77 137 C-77.47769 133.84724603 -78.25029851 131.43933134 -79.5625 128.5 C-80.89085289 125.26574949 -81.40245106 123.42083399 -81 120 C-80.67 119.67 -80.34 119.34 -80 119 C-70.12201775 119 -61.86545035 126.30433698 -54.29101562 131.93969727 C-42.45504314 140.72950297 -34.08626247 144.86344269 -19 144 C-21.30438359 141.61880362 -23.60546065 139.33395195 -26.13671875 137.19140625 C-36.60205902 128.27648676 -44.55366452 117.42688533 -52.0234375 105.9609375 C-65.70661055 85.46321977 -82.33471178 69.89711711 -106 62 C-107.00546875 61.66097656 -108.0109375 61.32195312 -109.046875 60.97265625 C-114.88248186 59.26140397 -120.45435004 58.7352917 -126.5 58.6875 C-127.18312256 58.68186035 -127.86624512 58.6762207 -128.57006836 58.67041016 C-132.20052082 58.72373935 -134.91251229 59.02306272 -138 61 Z M-37 68 C-36.67 68.99 -36.34 69.98 -36 71 C-33.96722527 71.95117358 -33.96722527 71.95117358 -31.5625 72.5625 C-27.19730942 73.80269058 -27.19730942 73.80269058 -25 76 C-24.91015625 78.20703125 -24.91015625 78.20703125 -25.0625 80.8125 C-25.14294477 85.10701312 -24.87277311 87.6142317 -22 91 C-18.71721948 94.28278052 -15.58372467 94.84194053 -11 95 C-7.63121229 93.69280737 -7.63121229 93.69280737 -5 92 C-6.33701635 82.60703707 -13.65332271 73.70941778 -21 68 C-26.75124438 64.89914693 -31.75521227 63.50446766 -37 68 Z M-35 77 C-35 78.32 -35 79.64 -35 81 C-33.68 81 -32.36 81 -31 81 C-31 79.68 -31 78.36 -31 77 C-32.32 77 -33.64 77 -35 77 Z " fill="#010D35" transform="translate(154,31)"/>
</svg>
